<mxfile host="app.diagrams.net" agent="Mozilla/5.0 (Windows NT 10.0; Win64; x64) AppleWebKit/537.36 (KHTML, like Gecko) Chrome/137.0.0.0 Safari/537.36" version="27.1.6">
  <diagram name="Page-1" id="v1PAQU_tYzzY6WaOyOt9">
    <mxGraphModel dx="2133" dy="334" grid="1" gridSize="10" guides="1" tooltips="1" connect="1" arrows="1" fold="1" page="0" pageScale="1" pageWidth="827" pageHeight="1169" math="0" shadow="0">
      <root>
        <mxCell id="0" />
        <mxCell id="1" parent="0" />
        <mxCell id="yIB_bS0WXqkb8OzLh7ZN-391" style="edgeStyle=orthogonalEdgeStyle;rounded=0;orthogonalLoop=1;jettySize=auto;html=1;exitX=0.5;exitY=1;exitDx=0;exitDy=0;entryX=0.5;entryY=0;entryDx=0;entryDy=0;" edge="1" parent="1" source="yIB_bS0WXqkb8OzLh7ZN-393" target="yIB_bS0WXqkb8OzLh7ZN-396">
          <mxGeometry relative="1" as="geometry" />
        </mxCell>
        <mxCell id="yIB_bS0WXqkb8OzLh7ZN-392" value="Starting the game" style="edgeLabel;html=1;align=center;verticalAlign=middle;resizable=0;points=[];" vertex="1" connectable="0" parent="yIB_bS0WXqkb8OzLh7ZN-391">
          <mxGeometry x="-0.2667" y="1" relative="1" as="geometry">
            <mxPoint as="offset" />
          </mxGeometry>
        </mxCell>
        <mxCell id="yIB_bS0WXqkb8OzLh7ZN-393" value="" style="ellipse;whiteSpace=wrap;html=1;aspect=fixed;" vertex="1" parent="1">
          <mxGeometry x="-606.0000000000005" y="740" width="80" height="80" as="geometry" />
        </mxCell>
        <mxCell id="yIB_bS0WXqkb8OzLh7ZN-394" style="edgeStyle=orthogonalEdgeStyle;rounded=0;orthogonalLoop=1;jettySize=auto;html=1;exitX=0.5;exitY=1;exitDx=0;exitDy=0;entryX=0.5;entryY=0;entryDx=0;entryDy=0;" edge="1" parent="1" source="yIB_bS0WXqkb8OzLh7ZN-396" target="yIB_bS0WXqkb8OzLh7ZN-402">
          <mxGeometry relative="1" as="geometry" />
        </mxCell>
        <mxCell id="yIB_bS0WXqkb8OzLh7ZN-395" value="Decides to play the game" style="edgeLabel;html=1;align=center;verticalAlign=middle;resizable=0;points=[];" vertex="1" connectable="0" parent="yIB_bS0WXqkb8OzLh7ZN-394">
          <mxGeometry x="-0.1667" y="3" relative="1" as="geometry">
            <mxPoint as="offset" />
          </mxGeometry>
        </mxCell>
        <mxCell id="yIB_bS0WXqkb8OzLh7ZN-396" value="Main Menu State" style="rounded=0;whiteSpace=wrap;html=1;" vertex="1" parent="1">
          <mxGeometry x="-626.0000000000005" y="880" width="120" height="60" as="geometry" />
        </mxCell>
        <mxCell id="yIB_bS0WXqkb8OzLh7ZN-397" style="edgeStyle=orthogonalEdgeStyle;rounded=0;orthogonalLoop=1;jettySize=auto;html=1;exitX=0.5;exitY=1;exitDx=0;exitDy=0;entryX=0.5;entryY=0;entryDx=0;entryDy=0;" edge="1" parent="1" source="yIB_bS0WXqkb8OzLh7ZN-402" target="yIB_bS0WXqkb8OzLh7ZN-404">
          <mxGeometry relative="1" as="geometry" />
        </mxCell>
        <mxCell id="yIB_bS0WXqkb8OzLh7ZN-398" value="All lives depleted" style="edgeLabel;html=1;align=center;verticalAlign=middle;resizable=0;points=[];" vertex="1" connectable="0" parent="yIB_bS0WXqkb8OzLh7ZN-397">
          <mxGeometry x="-0.2" y="5" relative="1" as="geometry">
            <mxPoint as="offset" />
          </mxGeometry>
        </mxCell>
        <mxCell id="yIB_bS0WXqkb8OzLh7ZN-399" style="edgeStyle=orthogonalEdgeStyle;rounded=0;orthogonalLoop=1;jettySize=auto;html=1;endArrow=none;startFill=0;" edge="1" parent="1">
          <mxGeometry relative="1" as="geometry">
            <mxPoint x="-420.00000000000045" y="1050" as="targetPoint" />
            <mxPoint x="-506.00000000000045" y="1010" as="sourcePoint" />
          </mxGeometry>
        </mxCell>
        <mxCell id="yIB_bS0WXqkb8OzLh7ZN-400" value="player beats the stage." style="edgeLabel;html=1;align=center;verticalAlign=middle;resizable=0;points=[];" vertex="1" connectable="0" parent="yIB_bS0WXqkb8OzLh7ZN-399">
          <mxGeometry x="0.6557" y="-2" relative="1" as="geometry">
            <mxPoint as="offset" />
          </mxGeometry>
        </mxCell>
        <mxCell id="yIB_bS0WXqkb8OzLh7ZN-401" style="edgeStyle=orthogonalEdgeStyle;rounded=0;orthogonalLoop=1;jettySize=auto;html=1;endArrow=none;startFill=1;startArrow=block;" edge="1" parent="1" source="yIB_bS0WXqkb8OzLh7ZN-402">
          <mxGeometry relative="1" as="geometry">
            <mxPoint x="-420.00000000000045" y="1050" as="targetPoint" />
            <Array as="points">
              <mxPoint x="-440.00000000000045" y="1050" />
              <mxPoint x="-440.00000000000045" y="1050" />
            </Array>
          </mxGeometry>
        </mxCell>
        <mxCell id="yIB_bS0WXqkb8OzLh7ZN-402" value="Play State" style="rounded=0;whiteSpace=wrap;html=1;" vertex="1" parent="1">
          <mxGeometry x="-626.0000000000005" y="1000" width="120" height="60" as="geometry" />
        </mxCell>
        <mxCell id="yIB_bS0WXqkb8OzLh7ZN-403" style="edgeStyle=orthogonalEdgeStyle;rounded=0;orthogonalLoop=1;jettySize=auto;html=1;exitX=0;exitY=0.5;exitDx=0;exitDy=0;entryX=0;entryY=0.5;entryDx=0;entryDy=0;" edge="1" parent="1" source="yIB_bS0WXqkb8OzLh7ZN-404" target="yIB_bS0WXqkb8OzLh7ZN-396">
          <mxGeometry relative="1" as="geometry">
            <Array as="points">
              <mxPoint x="-700" y="1150" />
              <mxPoint x="-700" y="910" />
            </Array>
          </mxGeometry>
        </mxCell>
        <mxCell id="yIB_bS0WXqkb8OzLh7ZN-404" value="Game Over State" style="rounded=0;whiteSpace=wrap;html=1;" vertex="1" parent="1">
          <mxGeometry x="-626.0000000000005" y="1120" width="120" height="60" as="geometry" />
        </mxCell>
      </root>
    </mxGraphModel>
  </diagram>
</mxfile>
